<svg xmlns:xlink="http://www.w3.org/1999/xlink" version="1.1" class="highcharts-root" style="font-family:Open Sans, sans-serif;font-size:12px;color:#000000;fill:#000000;" xmlns="http://www.w3.org/2000/svg" width="480" height="227" viewBox="0 0 480 227"><desc>Created with Highcharts 9.2.2</desc><defs><clipPath id="highcharts-h8f0tek-1050-"><rect x="0" y="0" width="392" height="121" fill="none"></rect></clipPath><clipPath id="highcharts-h8f0tek-1073-"><rect x="0" y="0" width="392" height="121" fill="none"></rect></clipPath><clipPath id="highcharts-h8f0tek-1118-"><rect x="44" y="16" width="392" height="121" fill="none"></rect></clipPath></defs><rect fill="#ffffff" class="highcharts-background" x="0" y="0" width="480" height="227" rx="0" ry="0"></rect><rect fill="#ffffff" class="highcharts-plot-background" x="44" y="16" width="392" height="121"></rect><g class="highcharts-pane-group" data-z-index="0"></g><g class="highcharts-plot-lines-0" data-z-index="0"><path fill="none" class="highcharts-plot-line "></path></g><g class="highcharts-plot-lines-0" data-z-index="0"><path fill="none" class="highcharts-plot-line " stroke="#000000" stroke-width="0.25" d="M 44 137.125 L 436 137.125"></path></g><g class="highcharts-plot-lines-0" data-z-index="0"><path fill="none" class="highcharts-plot-line " stroke="#000000" stroke-width="0.25" d="M 44 137.125 L 436 137.125"></path></g><rect fill="none" class="highcharts-plot-border" data-z-index="1" x="44" y="16" width="392" height="121"></rect><g class="highcharts-grid highcharts-xaxis-grid" data-z-index="1"><path fill="none" stroke-dasharray="none" data-z-index="1" class="highcharts-grid-line" d="M 61.5 16 L 61.5 137" opacity="1"></path><path fill="none" stroke-dasharray="none" data-z-index="1" class="highcharts-grid-line" d="M 79.5 16 L 79.5 137" opacity="1"></path><path fill="none" stroke-dasharray="none" data-z-index="1" class="highcharts-grid-line" d="M 96.5 16 L 96.5 137" opacity="1"></path><path fill="none" stroke-dasharray="none" data-z-index="1" class="highcharts-grid-line" d="M 114.5 16 L 114.5 137" opacity="1"></path><path fill="none" stroke-dasharray="none" data-z-index="1" class="highcharts-grid-line" d="M 132.5 16 L 132.5 137" opacity="1"></path><path fill="none" stroke-dasharray="none" data-z-index="1" class="highcharts-grid-line" d="M 150.5 16 L 150.5 137" opacity="1"></path><path fill="none" stroke-dasharray="none" data-z-index="1" class="highcharts-grid-line" d="M 168.5 16 L 168.5 137" opacity="1"></path><path fill="none" stroke-dasharray="none" data-z-index="1" class="highcharts-grid-line" d="M 186.5 16 L 186.5 137" opacity="1"></path><path fill="none" stroke-dasharray="none" data-z-index="1" class="highcharts-grid-line" d="M 203.5 16 L 203.5 137" opacity="1"></path><path fill="none" stroke-dasharray="none" data-z-index="1" class="highcharts-grid-line" d="M 221.5 16 L 221.5 137" opacity="1"></path><path fill="none" stroke-dasharray="none" data-z-index="1" class="highcharts-grid-line" d="M 239.5 16 L 239.5 137" opacity="1"></path><path fill="none" stroke-dasharray="none" data-z-index="1" class="highcharts-grid-line" d="M 257.5 16 L 257.5 137" opacity="1"></path><path fill="none" stroke-dasharray="none" data-z-index="1" class="highcharts-grid-line" d="M 275.5 16 L 275.5 137" opacity="1"></path><path fill="none" stroke-dasharray="none" data-z-index="1" class="highcharts-grid-line" d="M 292.5 16 L 292.5 137" opacity="1"></path><path fill="none" stroke-dasharray="none" data-z-index="1" class="highcharts-grid-line" d="M 310.5 16 L 310.5 137" opacity="1"></path><path fill="none" stroke-dasharray="none" data-z-index="1" class="highcharts-grid-line" d="M 328.5 16 L 328.5 137" opacity="1"></path><path fill="none" stroke-dasharray="none" data-z-index="1" class="highcharts-grid-line" d="M 346.5 16 L 346.5 137" opacity="1"></path><path fill="none" stroke-dasharray="none" data-z-index="1" class="highcharts-grid-line" d="M 364.5 16 L 364.5 137" opacity="1"></path><path fill="none" stroke-dasharray="none" data-z-index="1" class="highcharts-grid-line" d="M 382.5 16 L 382.5 137" opacity="1"></path><path fill="none" stroke-dasharray="none" data-z-index="1" class="highcharts-grid-line" d="M 399.5 16 L 399.5 137" opacity="1"></path><path fill="none" stroke-dasharray="none" data-z-index="1" class="highcharts-grid-line" d="M 417.5 16 L 417.5 137" opacity="1"></path><path fill="none" stroke-dasharray="none" data-z-index="1" class="highcharts-grid-line" d="M 435.5 16 L 435.5 137" opacity="1"></path><path fill="none" stroke-dasharray="none" data-z-index="1" class="highcharts-grid-line" d="M 43.5 16 L 43.5 137" opacity="1"></path></g><g class="highcharts-grid highcharts-yaxis-grid" data-z-index="1"><path fill="none" stroke-dasharray="none" data-z-index="1" class="highcharts-grid-line" d="M 44 137.5 L 436 137.5" opacity="1"></path><path fill="none" stroke-dasharray="none" data-z-index="1" class="highcharts-grid-line" d="M 44 97.5 L 436 97.5" opacity="1"></path><path fill="none" stroke-dasharray="none" data-z-index="1" class="highcharts-grid-line" d="M 44 56.5 L 436 56.5" opacity="1"></path><path fill="none" stroke-dasharray="none" data-z-index="1" class="highcharts-grid-line" d="M 44 16.5 L 436 16.5" opacity="1"></path></g><g class="highcharts-grid highcharts-yaxis-grid" data-z-index="1"><path fill="none" stroke-dasharray="none" data-z-index="1" class="highcharts-grid-line" d="M 44 137.5 L 436 137.5" opacity="1"></path><path fill="none" stroke-dasharray="none" data-z-index="1" class="highcharts-grid-line" d="M 44 97.5 L 436 97.5" opacity="1"></path><path fill="none" stroke-dasharray="none" data-z-index="1" class="highcharts-grid-line" d="M 44 56.5 L 436 56.5" opacity="1"></path><path fill="none" stroke-dasharray="none" data-z-index="1" class="highcharts-grid-line" d="M 44 16.5 L 436 16.5" opacity="1"></path></g><g class="highcharts-axis highcharts-xaxis" data-z-index="2"><path fill="none" class="highcharts-axis-line" stroke="#000000" stroke-width="0.25" data-z-index="7" d="M 44 137.125 L 436 137.125"></path></g><g class="highcharts-axis highcharts-yaxis" data-z-index="2"><path fill="none" class="highcharts-tick" stroke="#000000" stroke-width="0.25" d="M 44 137.125 L 54 137.125" opacity="1"></path><path fill="none" class="highcharts-tick" stroke="#000000" stroke-width="0.25" d="M 44 97.125 L 54 97.125" opacity="1"></path><path fill="none" class="highcharts-tick" stroke="#000000" stroke-width="0.25" d="M 44 56.125 L 54 56.125" opacity="1"></path><path fill="none" class="highcharts-tick" stroke="#000000" stroke-width="0.25" d="M 44 15.875 L 54 15.875" opacity="1"></path><path fill="none" class="highcharts-axis-line" stroke="#000000" stroke-width="0.25" data-z-index="7" d="M 43.875 16 L 43.875 137"></path></g><g class="highcharts-axis highcharts-yaxis" data-z-index="2"><path fill="none" class="highcharts-tick" stroke="#000000" stroke-width="0.25" d="M 436 137.125 L 426 137.125" opacity="1"></path><path fill="none" class="highcharts-tick" stroke="#000000" stroke-width="0.25" d="M 436 97.125 L 426 97.125" opacity="1"></path><path fill="none" class="highcharts-tick" stroke="#000000" stroke-width="0.25" d="M 436 56.125 L 426 56.125" opacity="1"></path><path fill="none" class="highcharts-tick" stroke="#000000" stroke-width="0.25" d="M 436 15.875 L 426 15.875" opacity="1"></path><path fill="none" class="highcharts-axis-line" stroke="#000000" stroke-width="0.25" data-z-index="7" d="M 436.125 16 L 436.125 137"></path></g><g class="highcharts-series-group" data-z-index="3"><g class="highcharts-series highcharts-series-0 highcharts-line-series highcharts-color-0" data-z-index="0.1" opacity="1" transform="translate(44,16) scale(1 1)" clip-path="url(#highcharts-h8f0tek-1050-)"><path fill="none" d="M 8.9090909090909 37.91333333333333 L 26.727272727273 62.11333333333334 L 44.545454545455 71.79333333333334 L 62.363636363636 66.95333333333333 L 80.181818181818 67.76 L 98 75.02000000000001" class="highcharts-graph" data-z-index="1" stroke="#4156A6" stroke-width="4" stroke-linejoin="round" stroke-linecap="round"></path></g><g class="highcharts-markers highcharts-series-0 highcharts-line-series highcharts-color-0" data-z-index="0.1" opacity="1" transform="translate(44,16) scale(1 1)" clip-path="none"></g><g class="highcharts-series highcharts-series-1 highcharts-line-series highcharts-color-1" data-z-index="0.1" opacity="1" transform="translate(44,16) scale(1 1)" clip-path="url(#highcharts-h8f0tek-1050-)"><path fill="none" d="M 115.81818181818 65.34 L 133.63636363636 74.21333333333334 L 151.45454545455 75.02000000000001 L 169.27272727273 78.24666666666667 L 187.09090909091 75.82666666666667 L 204.90909090909 73.40666666666667 L 222.72727272727 67.76 L 240.54545454545 70.98666666666666 L 258.36363636364 70.18 L 276.18181818182 69.37333333333333 L 294 70.18 L 311.81818181818 69.37333333333333 L 329.63636363636 73.40666666666667 L 347.45454545455 51.626666666666665 L 365.27272727273 28.233333333333334 L 383.09090909091 68.56666666666666" class="highcharts-graph" data-z-index="1" stroke="#F15D61" stroke-width="4" stroke-linejoin="round" stroke-linecap="round"></path></g><g class="highcharts-markers highcharts-series-1 highcharts-line-series highcharts-color-1" data-z-index="0.1" opacity="1" transform="translate(44,16) scale(1 1)" clip-path="none"></g><g class="highcharts-series highcharts-series-2 highcharts-line-series" data-z-index="0.1" opacity="1" transform="translate(44,16) scale(1 1)" clip-path="url(#highcharts-h8f0tek-1050-)"><path fill="none" d="M 115.81818181818 71.79333333333334 L 133.63636363636 75.82666666666667 L 151.45454545455 76.63333333333333 L 169.27272727273 72.6 L 187.09090909091 73.40666666666667 L 204.90909090909 74.21333333333334 L 222.72727272727 71.79333333333334 L 240.54545454545 64.53333333333333 L 258.36363636364 70.18 L 276.18181818182 66.95333333333333 L 294 63.726666666666674 L 311.81818181818 62.92 L 329.63636363636 63.726666666666674 L 347.45454545455 54.85333333333334 L 365.27272727273 51.626666666666665 L 383.09090909091 63.726666666666674" class="highcharts-graph" data-z-index="1" stroke="#5b91cc" stroke-width="4" stroke-linejoin="round" stroke-linecap="round"></path></g><g class="highcharts-markers highcharts-series-2 highcharts-line-series" data-z-index="0.1" opacity="1" transform="translate(44,16) scale(1 1)" clip-path="none"></g></g><text x="13" text-anchor="start" class="highcharts-title" data-z-index="4" style="color:#333333;font-size:20px;fill:#333333;" y="31"></text><text x="13" text-anchor="start" class="highcharts-subtitle" data-z-index="4" style="color:#000000;font-size:20px;fill:#000000;" y="36"></text><text x="13" text-anchor="start" class="highcharts-caption" data-z-index="4" style="color:#666666;font-size:16px;fill:#666666;" y="230"></text><g class="highcharts-legend highcharts-no-tooltip" data-z-index="7" transform="translate(126,193)"><rect fill="none" class="highcharts-legend-box" rx="0" ry="0" x="0" y="0" width="228" height="22" visibility="visible"></rect><g data-z-index="1"><g><g class="highcharts-legend-item highcharts-line-series highcharts-color-0 highcharts-series-0" data-z-index="1" transform="translate(8,3)"><path fill="none" d="M 0 8 L 16 8" class="highcharts-graph" stroke="#4156A6" stroke-width="4"></path><text x="21" y="11" style="color:#000000;cursor:pointer;font-size:8px;font-weight:normal;fill:#000000;" text-anchor="start" data-z-index="2">Hele landet</text></g><g class="highcharts-legend-item highcharts-line-series highcharts-color-1 highcharts-series-1" data-z-index="1" transform="translate(92.046875,3)"><path fill="none" d="M 0 8 L 16 8" class="highcharts-graph" stroke="#F15D61" stroke-width="4"></path><text x="21" y="11" style="color:#000000;cursor:pointer;font-size:8px;font-weight:normal;fill:#000000;" text-anchor="start" data-z-index="2">Oslo</text></g><g class="highcharts-legend-item highcharts-line-series highcharts-color-undefined highcharts-series-2" data-z-index="1" transform="translate(150.65625,3)"><path fill="none" d="M 0 8 L 16 8" class="highcharts-graph" stroke="#5b91cc" stroke-width="4"></path><text x="21" y="11" style="color:#000000;cursor:pointer;font-size:8px;font-weight:normal;fill:#000000;" text-anchor="start" data-z-index="2">Utenfor Oslo</text></g></g></g></g><g class="highcharts-axis-labels highcharts-xaxis-labels" data-z-index="7"><text x="55.03041125265074" style="color:#000000;cursor:default;font-size:8px;fill:#000000;" text-anchor="end" transform="translate(0,0) rotate(-45 55.03041125265074 151)" y="151" opacity="1">3. kv. 2015</text><text x="72.84859307083273" style="color:#000000;cursor:default;font-size:8px;fill:#000000;" text-anchor="end" transform="translate(0,0) rotate(-45 72.84859307083273 151)" y="151" opacity="1">4. kv. 2015</text><text x="90.66677488901374" style="color:#000000;cursor:default;font-size:8px;fill:#000000;" text-anchor="end" transform="translate(0,0) rotate(-45 90.66677488901374 151)" y="151" opacity="1">1. kv. 2016</text><text x="108.48495670719873" style="color:#000000;cursor:default;font-size:8px;fill:#000000;" text-anchor="end" transform="translate(0,0) rotate(-45 108.48495670719873 151)" y="151" opacity="1">2. kv. 2016</text><text x="126.30313852537873" style="color:#000000;cursor:default;font-size:8px;fill:#000000;" text-anchor="end" transform="translate(0,0) rotate(-45 126.30313852537873 151)" y="151" opacity="1">3. kv. 2016</text><text x="144.12132034355872" style="color:#000000;cursor:default;font-size:8px;fill:#000000;" text-anchor="end" transform="translate(0,0) rotate(-45 144.12132034355872 151)" y="151" opacity="1">4. kv. 2016</text><text x="161.93950216173872" style="color:#000000;cursor:default;font-size:8px;fill:#000000;" text-anchor="end" transform="translate(0,0) rotate(-45 161.93950216173872 151)" y="151" opacity="1">1. kv. 2017</text><text x="179.75768397991874" style="color:#000000;cursor:default;font-size:8px;fill:#000000;" text-anchor="end" transform="translate(0,0) rotate(-45 179.75768397991874 151)" y="151" opacity="1">2. kv. 2017</text><text x="197.57586579810874" style="color:#000000;cursor:default;font-size:8px;fill:#000000;" text-anchor="end" transform="translate(0,0) rotate(-45 197.57586579810874 151)" y="151" opacity="1">3. kv. 2017</text><text x="215.39404761628873" style="color:#000000;cursor:default;font-size:8px;fill:#000000;" text-anchor="end" transform="translate(0,0) rotate(-45 215.39404761628873 151)" y="151" opacity="1">4. kv. 2017</text><text x="233.21222943446872" style="color:#000000;cursor:default;font-size:8px;fill:#000000;" text-anchor="end" transform="translate(0,0) rotate(-45 233.21222943446872 151)" y="151" opacity="1">1. kv. 2018</text><text x="251.03041125264875" style="color:#000000;cursor:default;font-size:8px;fill:#000000;" text-anchor="end" transform="translate(0,0) rotate(-45 251.03041125264875 151)" y="151" opacity="1">2. kv. 2018</text><text x="268.8485930708287" style="color:#000000;cursor:default;font-size:8px;fill:#000000;" text-anchor="end" transform="translate(0,0) rotate(-45 268.8485930708287 151)" y="151" opacity="1">3. kv. 2018</text><text x="286.6667748890187" style="color:#000000;cursor:default;font-size:8px;fill:#000000;" text-anchor="end" transform="translate(0,0) rotate(-45 286.6667748890187 151)" y="151" opacity="1">4. kv. 2018</text><text x="304.4849567071987" style="color:#000000;cursor:default;font-size:8px;fill:#000000;" text-anchor="end" transform="translate(0,0) rotate(-45 304.4849567071987 151)" y="151" opacity="1">1. kv. 2019</text><text x="322.3031385253787" style="color:#000000;cursor:default;font-size:8px;fill:#000000;" text-anchor="end" transform="translate(0,0) rotate(-45 322.3031385253787 151)" y="151" opacity="1">2. kv. 2019</text><text x="340.12132034355875" style="color:#000000;cursor:default;font-size:8px;fill:#000000;" text-anchor="end" transform="translate(0,0) rotate(-45 340.12132034355875 151)" y="151" opacity="1">3. kv. 2019</text><text x="357.93950216173874" style="color:#000000;cursor:default;font-size:8px;fill:#000000;" text-anchor="end" transform="translate(0,0) rotate(-45 357.93950216173874 151)" y="151" opacity="1">4. kv. 2019</text><text x="375.75768397991874" style="color:#000000;cursor:default;font-size:8px;fill:#000000;" text-anchor="end" transform="translate(0,0) rotate(-45 375.75768397991874 151)" y="151" opacity="1">1. kv. 2020</text><text x="393.57586579810874" style="color:#000000;cursor:default;font-size:8px;fill:#000000;" text-anchor="end" transform="translate(0,0) rotate(-45 393.57586579810874 151)" y="151" opacity="1">2. kv. 2020</text><text x="411.39404761628873" style="color:#000000;cursor:default;font-size:8px;fill:#000000;" text-anchor="end" transform="translate(0,0) rotate(-45 411.39404761628873 151)" y="151" opacity="1">3. kv. 2020</text><text x="429.2122294344687" style="color:#000000;cursor:default;font-size:8px;fill:#000000;" text-anchor="end" transform="translate(0,0) rotate(-45 429.2122294344687 151)" y="151" opacity="1">4. kv. 2020</text></g><g class="highcharts-axis-labels highcharts-yaxis-labels" data-z-index="7"><text x="29" style="color:#000000;cursor:default;font-size:8px;fill:#000000;" text-anchor="end" transform="translate(0,0)" y="140" opacity="1">0%</text><text x="29" style="color:#000000;cursor:default;font-size:8px;fill:#000000;" text-anchor="end" transform="translate(0,0)" y="100" opacity="1">5%</text><text x="29" style="color:#000000;cursor:default;font-size:8px;fill:#000000;" text-anchor="end" transform="translate(0,0)" y="60" opacity="1">10%</text><text x="29" style="color:#000000;cursor:default;font-size:8px;fill:#000000;" text-anchor="end" transform="translate(0,0)" y="19" opacity="1">15%</text></g><g class="highcharts-axis-labels highcharts-yaxis-labels" data-z-index="7"><text x="451" style="color:#000000;cursor:default;font-size:8px;fill:#000000;" text-anchor="start" transform="translate(0,0)" y="140" opacity="1">0%</text><text x="451" style="color:#000000;cursor:default;font-size:8px;fill:#000000;" text-anchor="start" transform="translate(0,0)" y="100" opacity="1">5%</text><text x="451" style="color:#000000;cursor:default;font-size:8px;fill:#000000;" text-anchor="start" transform="translate(0,0)" y="60" opacity="1">10%</text><text x="451" style="color:#000000;cursor:default;font-size:8px;fill:#000000;" text-anchor="start" transform="translate(0,0)" y="19" opacity="1">15%</text></g><g class="highcharts-control-points" data-z-index="99" clip-path="url(#highcharts-h8f0tek-1118-)"></g></svg>